<svg version="1.2" xmlns="http://www.w3.org/2000/svg" viewBox="0 0 748 748" width="748" height="748"><style>.a{fill:#5cb172}</style><path fill-rule="evenodd" class="a" d="m252 101h4.3c18.4 0 41.1 15 50 33.1 6.9 14.1 6.7 8.7 6.7 136.7v115.2h17.8c24.4 0 88.4 1.1 89.9 1.5 0.6 0.2 1.5 1.9 1.9 3.7l0.8 3.3 2.3-8 25.4 0.1c28.2 0.1 33.2 0.8 44.8 6.7 9.1 4.6 20.7 15.7 25.4 24.5 3.9 7.2 7.7 20.1 7.7 25.8v3.3l-22.3 0.3c-12.2 0.2-63.1 0.3-113.2 0.3h-91l-6.9-2.3c-10.7-3.6-17.4-7.9-25.8-16.3-12.4-12.2-17.6-25.5-17.8-45.9-0.1-5.2-0.1-70.8-0.1-145.8zm85 407.1l14-0.1 0.1 7.8c0 4.3 0.1 15.4 0.2 24.7l0.2 17 27 1 0.3 6.3 0.3 6.2-3.3 0.1c-10.4 0.1-38.2-0.2-38.5-0.4-0.2-0.3-0.4-32.9-0.3-54.9zm94-0.1l6.7 0.3 6.8 0.3v49.2l-3 4.8c-4.3 6.9-9.6 9.5-19.2 9.5-4.1 0-8.8-0.6-10.6-1.4-3.4-1.4-9.7-7.8-9.7-9.9 0-0.7 2.7-2.7 6.1-4.6l6-3.3 2.5 2.3c3.2 3.1 8.6 3.1 11.7 0.1 2.3-2.4 2.4-4.7 2.7-40.5zm-236.1 99.3l2.6 0.3 0.2 14.7 0.3 14.8h26.1l-0.3 3.2-0.3 3.3-14.3 0.3c-8.7 0.1-15-0.2-16.3-0.8-1.8-1-1.9-2.1-1.9-17.9 0-9.2 0.3-17.1 0.7-17.5 0.4-0.4 1.8-0.6 3.2-0.4zm52.4 0c2.1 0.3 2.2 0.6 2.2 18.3 0 16.7-0.2 18-1.9 18.3-3.6 0.7-4-1.2-3.8-18.5 0.2-9.2 0.5-17.1 0.8-17.5 0.3-0.5 1.5-0.8 2.7-0.6zm28.3-0.2c0.7 0 6.3 5.4 12.5 12 6.2 6.6 11.7 12 12.1 12 0.4 0 0.8-5.3 1-11.8l0.3-11.7h6l0.2 16.9c0.3 16.9-0.2 19.6-3.3 19.6-1.3 0-21.1-19.7-22.7-22.6-2-3.5-2.7-0.7-2.7 10.1 0 11.3-0.1 11.5-2.5 12.1-1.3 0.3-2.9 0.3-3.5-0.1-1.5-0.9-1.4-33.7 0.2-35.3 0.6-0.7 1.7-1.2 2.4-1.2zm74.9 0.3l14 0.2v6l-14.3 0.3-14.3 0.2 0.3 11.3 0.3 11.2 21.5 0.6v-8l-8.3-0.3-8.2-0.3v-6l9.7-0.3c13.6-0.4 13.8-0.2 13.8 10.8 0 7.8-0.3 9.1-2 10-1 0.5-7.4 1-14 1-18.6 0-20.1-1.4-20-18.8 0-11.5 0.9-14.5 5.1-16.8 1.7-1 6.2-1.3 16.4-1.1zm94.4-0.1l2.6 0.3 0.2 14.7 0.3 14.7-2.9 3.3-3 3.3-11.6 0.3c-14.8 0.5-16.8 0-16.4-3.6l0.4-2.7 12.4-0.3c8.4-0.2 12.7-0.7 13.2-1.5 0.5-0.7 0.8-7.1 0.8-14.3 0-7.2 0.4-13.4 0.8-13.8 0.4-0.4 1.8-0.6 3.2-0.4zm28 0l2.6 0.3 0.2 17.4c0.2 10.1-0.1 17.8-0.6 18.4-0.6 0.5-2.2 0.7-3.6 0.3l-2.5-0.6v-17.4c0-9.5 0.3-17.6 0.7-18 0.4-0.4 1.8-0.6 3.2-0.4zm41.1 11.8c6.1 6.6 11.6 12 12 12 0.5 0 1-5.3 1.2-11.8l0.3-11.7h6l0.2 16.5c0.4 24.8-0.6 25.2-17.2 7.5-5.9-6.3-11.1-11.5-11.6-11.5-0.5 0-0.9 4.8-0.9 11 0.1 6-0.2 11.4-0.5 12-0.9 1.3-4.3 1.3-5.1-0.1-0.8-1.3-0.7-33.8 0.2-35.1 1.5-2.4 5.1 0.2 15.4 11.2zm75.8-11.1c0.7 0.4 1.2 1.9 1 3.2-0.3 2.4-0.4 2.4-14.6 2.7l-14.2 0.2v23h22v-7.9l-8.3-0.3-8.2-0.3v-6l10.1-0.3c13-0.4 13.4-0.1 13.4 11.3 0 7.3-0.3 8.6-2 9.5-1 0.5-7.1 1-13.5 1-12.5 0-17.5-1.3-19.5-4.9-0.6-1.1-1-7.2-1-13.8 0-12.7 0.8-15.5 5.3-17.3 2.8-1.1 27.7-1.2 29.5-0.1z"/></svg>